HIERARCHY
ROOT Hips
{
 OFFSET 0.000000 0.000000 0.000000
 CHANNELS 6 Xposition Yposition Zposition Yrotation Xrotation Zrotation
 JOINT Chest
 {
  OFFSET 0.000000 9.585900 0.002600
  CHANNELS 3 Yrotation Xrotation Zrotation
  JOINT Chest2
  {
   OFFSET 0.000000 9.601200 -0.005300
   CHANNELS 3 Yrotation Xrotation Zrotation
   JOINT Chest3
   {
    OFFSET 0.000000 9.561800 0.000000
    CHANNELS 3 Yrotation Xrotation Zrotation
    JOINT Chest4
    {
     OFFSET 0.000000 9.552100 0.000000
     CHANNELS 3 Yrotation Xrotation Zrotation
     JOINT Neck
     {
      OFFSET 0.000000 14.453000 0.000000
      CHANNELS 3 Yrotation Xrotation Zrotation
      JOINT Head
      {
       OFFSET 0.000000 8.936500 -0.011300
       CHANNELS 3 Yrotation Xrotation Zrotation
       End Site
       {
        OFFSET 0.000000 17.073600 -0.006000
       }
      }
     }
     JOINT RightCollar
     {
      OFFSET -2.921100 9.558500 0.000000
      CHANNELS 3 Yrotation Xrotation Zrotation
      JOINT RightShoulder
      {
       OFFSET -13.519700 0.000000 0.000000
       CHANNELS 3 Yrotation Xrotation Zrotation
       JOINT RightElbow
       {
        OFFSET 0.000000 -29.696600 0.000000
        CHANNELS 3 Yrotation Xrotation Zrotation
        JOINT RightWrist
        {
         OFFSET 0.000000 -24.004700 0.000000
         CHANNELS 3 Yrotation Xrotation Zrotation
         End Site
         {
          OFFSET 0.000000 -17.728500 0.000000
         }
        }
       }
      }
     }
     JOINT LeftCollar
     {
      OFFSET 2.921100 9.558500 0.000000
      CHANNELS 3 Yrotation Xrotation Zrotation
      JOINT LeftShoulder
      {
       OFFSET 13.519700 0.000000 0.000000
       CHANNELS 3 Yrotation Xrotation Zrotation
       JOINT LeftElbow
       {
        OFFSET 0.000000 -29.696600 0.000000
        CHANNELS 3 Yrotation Xrotation Zrotation
        JOINT LeftWrist
        {
         OFFSET 0.000000 -24.004700 0.000000
         CHANNELS 3 Yrotation Xrotation Zrotation
         End Site
         {
          OFFSET 0.000000 -17.728500 0.000000
         }
        }
       }
      }
     }
    }
   }
  }
 }
 JOINT RightHip
 {
  OFFSET -7.771700 -0.012900 -0.001300
  CHANNELS 3 Yrotation Xrotation Zrotation
  JOINT RightKnee
  {
   OFFSET 0.000000 -40.869800 0.001200
   CHANNELS 3 Yrotation Xrotation Zrotation
   JOINT RightAnkle
   {
    OFFSET 0.000000 -39.717900 0.002100
    CHANNELS 3 Yrotation Xrotation Zrotation
    JOINT RightToe
    {
     OFFSET 0.000000 -4.965400 11.033500
     CHANNELS 3 Yrotation Xrotation Zrotation
     End Site
     {
      OFFSET 0.000000 -1.423100 5.872300
     }
    }
   }
  }
 }
 JOINT LeftHip
 {
  OFFSET 7.771700 -0.012900 -0.001300
  CHANNELS 3 Yrotation Xrotation Zrotation
  JOINT LeftKnee
  {
   OFFSET 0.000000 -40.869800 0.001200
   CHANNELS 3 Yrotation Xrotation Zrotation
   JOINT LeftAnkle
   {
    OFFSET 0.000000 -39.717900 0.002100
    CHANNELS 3 Yrotation Xrotation Zrotation
    JOINT LeftToe
    {
     OFFSET 0.000000 -4.965400 11.033500
     CHANNELS 3 Yrotation Xrotation Zrotation
     End Site
     {
      OFFSET 0.000000 -1.423100 5.872300
     }
    }
   }
  }
 }
}
MOTION
Frames: 16
Frame Time: 0.008333
0.000000 85.388000 0.000000 0.000000 -5.767877 0.000000 0.000000 11.653817 0.000000 0.000000 -5.885947 0.000000 0.000000 -0.000000 0.000000 0.000000 -0.000000 0.000000 0.000000 12.528835 0.000000 0.000000 0.711642 0.000000 0.000000 -0.000000 0.000000 0.000000 0.000000 -90.000000 0.000000 -2.309062 0.000000 0.000000 2.309062 0.000000 0.000000 -0.000000 0.000000 0.000000 -0.000000 90.000000 0.000000 -2.309062 0.000000 0.000000 2.309062 0.000000 0.000000 8.520406 0.000000 0.000000 1.905762 0.000000 -0.000000 -4.658285 0.000000 0.000000 -0.000000 0.000000 0.000000 8.520406 0.000000 0.000000 1.905762 0.000000 -0.000000 -4.658285 0.000000 0.000000 -0.000000 0.000000
-2.590828 50.071156 37.222171 172.463487 -34.306977 -6.223067 6.604474 23.617349 7.584814 0.800810 3.762299 0.810740 1.287863 5.944001 1.298783 4.976593 19.657322 5.028395 -0.368684 16.683986 -2.321587 0.122763 -4.791892 -4.173066 1.106147 -0.687650 -3.759464 9.041772 -13.125869 -4.194607 -109.383441 -52.119058 102.787902 -16.046626 -11.041130 16.956116 -13.410465 1.837537 -1.150329 5.347475 -14.835199 0.341563 89.979940 -39.907382 -111.175439 36.799923 -20.360494 10.184108 0.469299 -46.473803 8.977089 -99.895810 83.082788 -87.543436 1.313728 -11.035409 -4.680262 -0.357663 1.129244 -0.173081 -9.551132 -50.498147 16.069282 -160.558043 84.794882 -168.134297 -0.886333 -11.571696 6.637793 -0.039111 -0.154509 -0.029984
-2.586669 50.070079 37.223476 172.476702 -34.321793 -6.222557 6.576945 23.587665 7.555768 0.788407 3.703807 0.794021 1.290936 5.969441 1.308480 4.953833 19.636745 5.012240 -0.396154 16.735202 -2.362037 0.084338 -4.696695 -4.237623 1.102503 -0.703076 -3.743309 8.988285 -12.997754 -4.144335 -109.083351 -52.231361 102.437785 -16.010162 -11.027051 16.962988 -13.397314 1.859022 -1.175700 5.356076 -14.693195 0.275452 89.890865 -39.930361 -110.988450 36.703919 -20.316106 10.373582 0.445245 -46.458309 8.979653 -99.909391 83.085711 -87.566893 1.325366 -11.029475 -4.682070 -0.368060 1.121711 -0.175096 -9.558485 -50.482626 16.059409 -160.810856 84.800705 -168.386325 -0.907727 -11.574807 6.628886 -0.038690 -0.151193 -0.026674
-2.581416 50.068802 37.225934 172.497413 -34.333859 -6.230202 6.538290 23.497959 7.521009 0.784756 3.726798 0.799082 1.293513 6.009651 1.317473 4.917986 19.570730 4.984262 -0.427130 16.763440 -2.412357 0.043523 -4.644132 -4.319552 1.093394 -0.718329 -3.726412 8.943811 -12.868481 -4.100398 -108.781429 -52.310150 102.092510 -15.975864 -11.024524 16.983919 -13.385662 1.884309 -1.199911 5.360985 -14.551683 0.208460 89.826226 -39.972139 -110.823749 36.599674 -20.239932 10.573618 0.409407 -46.442456 8.984960 -99.906999 83.098340 -87.563299 1.317465 -11.025770 -4.700997 -0.362354 1.117432 -0.172876 -9.570378 -50.471397 16.055062 -161.012336 84.804931 -168.584989 -0.927532 -11.574677 6.624313 -0.038256 -0.149178 -0.024801
-2.573969 50.068189 37.228974 172.525787 -34.348674 -6.254747 6.510552 23.459515 7.517968 0.778859 3.713482 0.795831 1.278763 5.968030 1.306435 4.900644 19.567833 4.980176 -0.459539 16.766282 -2.470972 0.003674 -4.638608 -4.416723 1.079833 -0.733251 -3.708911 8.912148 -12.745006 -4.062325 -108.479809 -52.361025 101.750233 -15.945655 -11.027270 17.015828 -13.370145 1.908392 -1.225021 5.360816 -14.411453 0.145604 89.780258 -40.017030 -110.678638 36.493619 -20.137820 10.772733 0.351889 -46.420108 9.007228 -99.869388 83.109468 -87.516285 1.301569 -11.014010 -4.730067 -0.344028 1.105780 -0.166150 -9.606506 -50.455285 16.078028 -161.105380 84.807450 -168.680085 -0.944298 -11.575040 6.621608 -0.039593 -0.148692 -0.022249
-2.569827 50.067189 37.232673 172.541260 -34.359764 -6.254443 6.478324 23.417396 7.490461 0.773061 3.699904 0.792980 1.265866 5.925589 1.297494 4.911974 19.622841 4.995422 -0.515507 16.687156 -2.545144 -0.030187 -4.672303 -4.528665 1.047435 -0.802474 -3.700591 8.925627 -12.626315 -4.033732 -108.232009 -52.391742 101.424972 -15.924147 -11.022365 17.048891 -13.370437 1.867471 -1.243431 5.368576 -14.290832 0.126004 89.709772 -40.008168 -110.519548 36.398036 -20.033385 10.943787 0.327632 -46.405298 9.006709 -99.847215 83.113423 -87.502808 1.316475 -11.018073 -4.728711 -0.357125 1.111876 -0.171254 -9.612643 -50.443277 16.072473 -161.133428 84.812326 -168.713807 -0.953896 -11.573632 6.619858 -0.038966 -0.149538 -0.018905
-2.563722 50.067351 37.236644 172.560127 -34.375663 -6.271836 6.456578 23.405936 7.488116 0.758202 3.656037 0.784258 1.257085 5.904920 1.293769 4.875943 19.568099 4.979397 -0.533354 16.681980 -2.614592 -0.058831 -4.735692 -4.656405 1.054267 -0.773449 -3.682458 8.937671 -12.513751 -4.005699 -108.005175 -52.402824 101.123972 -15.910223 -11.000309 17.072725 -13.333340 1.912012 -1.270793 5.381062 -14.163581 0.103168 89.624362 -39.983249 -110.370899 36.330986 -19.953595 11.051958 0.299303 -46.385749 9.019283 -99.803039 83.112818 -87.447428 1.312961 -11.011069 -4.743685 -0.347968 1.108309 -0.170428 -9.640676 -50.424042 16.094721 -161.049335 84.812481 -168.637089 -0.956289 -11.573504 6.621566 -0.038921 -0.147004 -0.018774
-2.557494 50.069579 37.239069 172.582220 -34.406845 -6.296265 6.434248 23.408467 7.491867 0.745402 3.612282 0.779431 1.263212 5.931513 1.297639 4.818100 19.463630 4.955650 -0.551027 16.666478 -2.692814 -0.085773 -4.821981 -4.797838 1.059289 -0.741213 -3.667452 8.838636 -12.444495 -3.949431 -107.649502 -52.418545 100.802547 -15.894973 -10.960101 17.077282 -13.295522 1.950761 -1.302118 5.417997 -14.001528 -0.014025 89.528141 -40.030348 -110.265356 36.299350 -19.901397 11.082465 0.243464 -46.344689 9.048478 -99.733723 83.106765 -87.380906 1.335150 -10.998285 -4.753089 -0.355050 1.099202 -0.175617 -9.676473 -50.385972 16.123941 -160.939973 84.812692 -168.539208 -0.956253 -11.573822 6.628730 -0.038227 -0.147867 -0.022241
-2.550485 50.070628 37.245099 172.599358 -34.418095 -6.332384 6.391149 23.317429 7.490367 0.761247 3.679969 0.790404 1.235234 5.849584 1.285235 4.800219 19.460111 4.956459 -0.581172 16.612023 -2.779288 -0.109879 -4.922103 -4.948646 1.044676 -0.744690 -3.651088 8.784095 -12.366190 -3.900216 -107.374556 -52.442337 100.528484 -15.874904 -10.907682 17.057933 -13.259812 2.014265 -1.328712 5.438102 -13.918618 -0.086578 89.415425 -40.024084 -110.139686 36.295656 -19.865080 11.048214 0.173515 -46.320980 9.094869 -99.598696 83.103599 -87.236839 1.338488 -10.986351 -4.776519 -0.337852 1.097057 -0.170363 -9.735977 -50.367818 16.185841 -160.792909 84.812033 -168.403956 -0.957779 -11.576172 6.630531 -0.036031 -0.143880 -0.021304
-2.550045 50.072160 37.249808 172.624329 -34.433452 -6.340743 6.343642 23.263543 7.465215 0.753052 3.662158 0.788342 1.222285 5.822811 1.281810 4.782599 19.455859 4.958735 -0.609773 16.558438 -2.868620 -0.129868 -5.020342 -5.105408 1.026345 -0.753118 -3.629966 8.748605 -12.284595 -3.854065 -107.166420 -52.487004 100.296823 -15.851661 -10.847772 17.023445 -13.237356 1.977836 -1.355183 5.459796 -13.746798 -0.125641 89.307814 -40.006146 -110.012829 36.304998 -19.829167 10.976478 0.135392 -46.295849 9.092648 -99.531390 83.114672 -87.177652 1.356869 -10.985019 -4.780478 -0.354677 1.100808 -0.177078 -9.774985 -50.343522 16.212048 -160.454337 84.813782 -168.103021 -0.952187 -11.567052 6.646844 -0.036726 -0.146893 -0.019389
-2.552231 50.073595 37.255428 172.639518 -34.444188 -6.337275 6.303560 23.221462 7.436811 0.742412 3.629439 0.784009 1.217526 5.819634 1.282952 4.758804 19.427200 4.958092 -0.637630 16.513320 -2.958541 -0.148433 -5.102753 -5.263373 1.008950 -0.767871 -3.608115 8.706989 -12.205968 -3.804340 -106.998411 -52.558941 100.097652 -15.819439 -10.792968 16.980178 -13.208937 1.935656 -1.382205 5.468884 -13.576945 -0.163122 89.261239 -40.025669 -109.951926 36.325915 -19.793432 10.934937 0.112119 -46.279934 9.079510 -99.484263 83.126668 -87.138488 1.367294 -10.979176 -4.780542 -0.363622 1.101071 -0.185532 -9.782587 -50.329697 16.204360 -160.307311 84.821869 -167.973000 -0.950734 -11.555218 6.653209 -0.041718 -0.153694 -0.017642
-2.551271 50.075733 37.262708 172.650762 -34.452613 -6.360628 6.277128 23.174906 7.440887 0.736776 3.615213 0.783089 1.208563 5.798254 1.281608 4.736744 19.398210 4.959634 -0.665245 16.479275 -3.047768 -0.167233 -5.164671 -5.419896 0.995882 -0.787708 -3.588246 8.656294 -12.128070 -3.750159 -106.863129 -52.657001 99.930665 -15.777385 -10.761880 16.928829 -13.176032 1.920879 -1.408708 5.474199 -13.440441 -0.182222 89.211930 -40.023878 -109.887961 36.323992 -19.715463 10.885814 0.060244 -46.255338 9.099740 -99.294249 83.152757 -86.949994 1.391182 -10.975784 -4.784409 -0.385143 1.112788 -0.198590 -9.819375 -50.315743 16.241675 -160.199557 84.826326 -167.874541 -0.956747 -11.553015 6.654157 -0.037615 -0.151204 -0.015400
-2.551101 50.079103 37.269572 172.663434 -34.467801 -6.388875 6.250774 23.134231 7.451134 0.731442 3.601214 0.782512 1.200125 5.777132 1.280773 4.716522 19.369065 4.962944 -0.691354 16.454282 -3.137112 -0.183424 -5.209650 -5.577026 0.985398 -0.808405 -3.570216 8.601419 -12.051425 -3.692088 -106.755586 -52.778648 99.789647 -15.734687 -10.757109 16.877821 -13.144373 1.905147 -1.435431 5.475523 -13.304523 -0.200664 89.124179 -40.029151 -109.763195 36.305640 -19.603292 10.782348 0.025044 -46.233234 9.127839 -99.143703 83.154137 -86.794498 1.390364 -10.955607 -4.788563 -0.382247 1.106310 -0.196392 -9.853320 -50.295586 16.275353 -160.198765 84.832097 -167.877819 -0.963573 -11.549356 6.655460 -0.034655 -0.152290 -0.015887
-2.552770 50.082641 37.277158 172.666563 -34.481119 -6.410190 6.229695 23.090043 7.460161 0.738700 3.623740 0.783537 1.180016 5.719852 1.278952 4.697388 19.340001 4.967483 -0.713811 16.433527 -3.227492 -0.192542 -5.246502 -5.737261 0.975577 -0.828901 -3.553931 8.549317 -11.980115 -3.629938 -106.666286 -52.914934 99.662382 -15.697641 -10.771442 16.838048 -13.112648 1.888644 -1.461465 5.469580 -13.173545 -0.247249 89.037431 -40.127346 -109.595022 36.329023 -19.495102 10.629656 -0.000296 -46.214736 9.154467 -98.976967 83.152501 -86.626991 1.391595 -10.935604 -4.785970 -0.381713 1.102368 -0.196542 -9.880724 -50.275523 16.307901 -160.188213 84.840548 -167.875650 -0.965271 -11.551224 6.653181 -0.035061 -0.149150 -0.012404
-2.556796 50.086289 37.285198 172.673614 -34.492211 -6.428289 6.201326 23.044622 7.463810 0.727390 3.592254 0.782703 1.178129 5.716978 1.279667 4.678649 19.310719 4.973587 -0.732057 16.412470 -3.319092 -0.193494 -5.283724 -5.901314 0.967983 -0.851524 -3.543942 8.500087 -11.913020 -3.561109 -106.586419 -53.048631 99.544045 -15.667927 -10.797120 16.812947 -13.081486 1.870578 -1.486737 5.442554 -13.073873 -0.320031 88.996003 -40.261767 -109.454608 36.336459 -19.378554 10.521309 -0.026488 -46.192957 9.170741 -98.784438 83.156342 -86.436878 1.401607 -10.930261 -4.782491 -0.392012 1.112427 -0.193702 -9.898391 -50.258607 16.326405 -160.186361 84.852170 -167.880101 -0.967423 -11.553741 6.649051 -0.036813 -0.143667 -0.005288
-2.565142 50.090749 37.291655 172.693675 -34.511496 -6.433950 6.151662 23.010922 7.446474 0.716496 3.560371 0.782359 1.176639 5.715414 1.280500 4.661445 19.281756 4.980902 -0.746943 16.388691 -3.411184 -0.187930 -5.325880 -6.067510 0.958076 -0.876099 -3.540803 8.455234 -11.851456 -3.485834 -106.511460 -53.164933 99.433267 -15.645614 -10.819669 16.799337 -13.055718 1.850234 -1.511107 5.447646 -12.961441 -0.355946 88.963726 -40.346290 -109.368421 36.325548 -19.267912 10.429427 -0.035970 -46.161341 9.149872 -98.651674 83.168351 -86.303415 1.407444 -10.937601 -4.776749 -0.396926 1.126583 -0.198348 -9.883779 -50.237941 16.299872 -160.210627 84.866772 -167.906858 -0.977270 -11.544915 6.658756 -0.036600 -0.146432 -0.004429
